<svg width="204" height="60" viewBox="0 0 204 60" fill="none" xmlns="http://www.w3.org/2000/svg">
<path d="M91.0024 49.0725L84.9467 37.938H84.0383V49.0725H75.5603V18.8807H88.9262C91.3773 18.8807 93.4535 19.309 95.1549 20.1655C96.8563 20.9934 98.1395 22.1497 99.0046 23.6343C99.8697 25.0904 100.302 26.732 100.302 28.5592C100.302 30.6148 99.7255 32.4278 98.572 33.998C97.4474 35.5397 95.7893 36.6389 93.5977 37.2956L100.475 49.0725H91.0024ZM84.0383 32.1994H88.2341C89.3875 32.1994 90.2526 31.9281 90.8294 31.3857C91.4061 30.8432 91.6945 30.0581 91.6945 29.0303C91.6945 28.0596 91.3917 27.303 90.7861 26.7606C90.2094 26.1896 89.3587 25.9041 88.2341 25.9041H84.0383V32.1994ZM125.266 49.3723C122.411 49.3723 119.787 48.7157 117.394 47.4023C115 46.0605 113.097 44.219 111.684 41.8779C110.3 39.5082 109.608 36.8388 109.608 33.8696C109.608 30.9003 110.3 28.2452 111.684 25.9041C113.097 23.5344 115 21.6929 117.394 20.3796C119.787 19.0663 122.411 18.4096 125.266 18.4096C128.15 18.4096 130.774 19.0663 133.139 20.3796C135.532 21.6929 137.421 23.5344 138.805 25.9041C140.189 28.2452 140.881 30.9003 140.881 33.8696C140.881 36.8388 140.189 39.5082 138.805 41.8779C137.421 44.219 135.532 46.0605 133.139 47.4023C130.745 48.7157 128.121 49.3723 125.266 49.3723ZM125.266 41.5781C127.429 41.5781 129.13 40.8786 130.37 39.4797C131.639 38.0807 132.274 36.2107 132.274 33.8696C132.274 31.4713 131.639 29.587 130.37 28.2166C129.13 26.8177 127.429 26.1182 125.266 26.1182C123.075 26.1182 121.359 26.8177 120.119 28.2166C118.879 29.587 118.259 31.4713 118.259 33.8696C118.259 36.2392 118.879 38.1235 120.119 39.5225C121.359 40.8929 123.075 41.5781 125.266 41.5781ZM162.686 49.3723C159.14 49.3723 156.227 48.5444 153.949 46.8884C151.671 45.204 150.445 42.8058 150.272 39.6938H159.313C159.399 40.7502 159.716 41.521 160.264 42.0064C160.812 42.4917 161.519 42.7344 162.384 42.7344C163.162 42.7344 163.797 42.5488 164.287 42.1777C164.806 41.778 165.065 41.2355 165.065 40.5503C165.065 39.6652 164.647 38.98 163.811 38.4947C162.975 38.0093 161.619 37.4669 159.745 36.8673C157.755 36.2107 156.141 35.5826 154.901 34.983C153.689 34.3549 152.622 33.4556 151.7 32.285C150.806 31.0859 150.359 29.5299 150.359 27.6171C150.359 25.6757 150.849 24.0197 151.829 22.6493C152.81 21.2504 154.165 20.194 155.895 19.4803C157.626 18.7665 159.587 18.4096 161.778 18.4096C165.325 18.4096 168.151 19.2376 170.256 20.8935C172.39 22.5209 173.529 24.8192 173.673 27.7884H164.46C164.431 26.8748 164.143 26.1896 163.595 25.7328C163.076 25.276 162.398 25.0476 161.562 25.0476C160.927 25.0476 160.408 25.2331 160.005 25.6043C159.601 25.9754 159.399 26.5036 159.399 27.1888C159.399 27.7598 159.615 28.2595 160.048 28.6877C160.509 29.0874 161.072 29.4443 161.735 29.7583C162.398 30.0438 163.379 30.415 164.676 30.8718C166.608 31.5284 168.194 32.1851 169.434 32.8418C170.703 33.4699 171.784 34.3692 172.678 35.5397C173.601 36.6818 174.063 38.1378 174.063 39.9079C174.063 41.7066 173.601 43.3197 172.678 44.7472C171.784 46.1747 170.472 47.3024 168.742 48.1304C167.041 48.9583 165.022 49.3723 162.686 49.3723ZM192.97 25.6043V30.5292H202.702V36.9102H192.97V42.349H204V49.0725H184.492V18.8807H204V25.6043H192.97Z" fill="url(#paint0_linear)"/>
<path d="M9.74089 32.119C17.6724 18.9591 37.7516 12.6394 49.8419 8.02974C49.8419 8.02974 43.8057 14.9442 42.6792 26.0967C41.8006 34.7955 44.7785 39.5801 44.3815 45.2788C43.4804 58.2156 32.2696 60 25.9615 60C18.4735 60 12.4908 55.316 9.74089 51.5242C7.88151 48.9603 4.07954 41.5122 9.74089 32.119Z" fill="url(#paint1_linear)"/>
<path d="M21.8528 12.4907C22.0781 11.8216 29.5126 3.94052 33.3424 0C33.0144 0.433093 32.7925 2.70574 32.7025 5.032C32.6071 7.49796 32.66 10.0242 32.8919 10.4833C32.4413 10.4833 27.485 12.9368 25.0068 14.2751C23.8804 13.3829 22.3034 12.7138 21.8528 12.4907Z" fill="url(#paint2_linear)"/>
<path d="M7.43447 29.2193C7.65975 20.7435 3.15402 10.9294 0 7.58364C0.67586 7.80669 14.6436 12.9368 21.4022 16.2825C15.0942 20.5204 12.1655 22.3048 7.43447 29.2193Z" fill="url(#paint3_linear)"/>
<defs>
<linearGradient id="paint0_linear" x1="-8.58177e-08" y1="29.8885" x2="204.11" y2="29.8139" gradientUnits="userSpaceOnUse">
<stop stop-color="#EC4899"/>
<stop offset="1" stop-color="#F97316"/>
</linearGradient>
<linearGradient id="paint1_linear" x1="-8.58177e-08" y1="29.8885" x2="204.11" y2="29.8139" gradientUnits="userSpaceOnUse">
<stop stop-color="#EC4899"/>
<stop offset="1" stop-color="#F97316"/>
</linearGradient>
<linearGradient id="paint2_linear" x1="-8.58177e-08" y1="29.8885" x2="204.11" y2="29.8139" gradientUnits="userSpaceOnUse">
<stop stop-color="#EC4899"/>
<stop offset="1" stop-color="#F97316"/>
</linearGradient>
<linearGradient id="paint3_linear" x1="-8.58177e-08" y1="29.8885" x2="204.11" y2="29.8139" gradientUnits="userSpaceOnUse">
<stop stop-color="#EC4899"/>
<stop offset="1" stop-color="#F97316"/>
</linearGradient>
</defs>
</svg>
